<?xml version="1.0" encoding="utf-8"?>
<!-- Generator: Adobe Illustrator 16.0.0, SVG Export Plug-In . SVG Version: 6.00 Build 0)  -->
<!DOCTYPE svg PUBLIC "-//W3C//DTD SVG 1.1//EN" "http://www.w3.org/Graphics/SVG/1.1/DTD/svg11.dtd">
<svg version="1.1" id="Layer_1" xmlns="http://www.w3.org/2000/svg" xmlns:xlink="http://www.w3.org/1999/xlink" x="0px" y="0px"
	 width="363px" height="116px" viewBox="0 0 363 116" enable-background="new 0 0 363 116" xml:space="preserve">
<g>
	
		<text transform="matrix(0.9397 0 -0.342 0.9397 144.2119 90.6924)" fill="#009444" font-family="'HighlandGothicFLF'" font-size="76.6208">Feed</text>
	<text transform="matrix(1 0 0 1 0 90.7153)" fill="#808285" font-family="'HighlandGothicFLF'" font-size="72">Acti</text>
	<g>
		<g>
			<path fill="#808285" d="M51.126,72.72c0.003-0.072,0.006-0.146,0.009-0.219c-0.537,1.297-1.074,2.593-1.611,3.889
				c0.021-0.023,0.041-0.047,0.062-0.07c-2.222,0.287-4.443,0.574-6.665,0.86c-2.008-1.243-1.764-1.918-1.01-0.445
				c0.346,0.677,0.654,1.374,0.969,2.065c0.771,1.689,1.484,3.405,2.194,5.121c1.43,3.457,2.626,7.064,4.317,10.403
				c3.314,6.544,9.385,10.698,16.293,12.693c8.924,2.576,18.861,2.079,28.038,2.028c13.425-0.074,26.844-0.029,40.269,0.059
				c29.356,0.191,58.712,0.377,88.069,0.475c26.074,0.086,52.246,0.684,78.307-0.309c15.666-0.597,34.033-1.523,46.844-11.717
				c12.756-10.148,14.127-28.049,11.953-43.039c-1.561-10.767-5.492-22.136-12.371-30.669c-5.291-6.565-13.832-10.28-21.941-11.7
				c-17.301-3.028-35.779,1.267-52.238,6.549c-2.709,0.869-5.412,1.788-8.055,2.84c-6.508,2.591-3.672,13.234,2.924,10.607
				c11.414-4.545,23.754-7.828,35.941-9.292c8.832-1.062,18.008-1.132,26.438,2.016c8.646,3.229,12.865,11.852,15.643,20.018
				c4.672,13.732,6.98,33.958-5.504,44.442c-4.891,4.105-11.877,5.699-17.967,6.877c-9.215,1.783-18.744,2.037-28.102,2.269
				c-53.254,1.318-106.677-0.021-159.94-0.366c-12.941-0.084-25.879-0.168-38.82-0.068c-8.762,0.067-18.004,0.6-26.562-1.626
				c-5.572-1.448-8.844-5.166-10.803-10.15c-1.494-3.801-3.063-7.573-4.681-11.322c-1.108-2.569-2.149-5.708-4.652-7.256
				c-1.989-1.231-5.084-0.953-6.665,0.86c-1.117,1.281-1.612,2.471-1.681,4.178C39.837,79.815,50.838,79.788,51.126,72.72
				L51.126,72.72z"/>
		</g>
	</g>
	<polygon fill="#808285" points="222.916,44.365 268.683,0 266.021,26.838 286.621,44.247 	"/>
</g>
</svg>
