<?xml version="1.0" encoding="utf-8"?>
<!-- Generator: Adobe Illustrator 16.0.0, SVG Export Plug-In . SVG Version: 6.00 Build 0)  -->
<!DOCTYPE svg PUBLIC "-//W3C//DTD SVG 1.1//EN" "http://www.w3.org/Graphics/SVG/1.1/DTD/svg11.dtd">
<svg version="1.1" id="Layer_1" xmlns="http://www.w3.org/2000/svg" xmlns:xlink="http://www.w3.org/1999/xlink" x="0px" y="0px"
	 width="363px" height="116px" viewBox="0 0 363 116" enable-background="new 0 0 363 116" xml:space="preserve">
<g>
	<g enable-background="new    ">
		<path fill="#009444" d="M207.986,44.251h-17.784c-1.681,0-3.434,0.168-5.26,0.504s-3.602,0.997-5.328,1.979
			c-1.727,0.985-3.366,2.389-4.917,4.212c-1.553,1.825-2.861,4.201-3.927,7.128h31.32l-3.354,9.217h-31.32l-8.516,23.398h-11.809
			l10.586-29.088c1.432-3.935,3.13-7.547,5.096-10.836c1.963-3.287,4.302-6.12,7.016-8.496c2.712-2.376,5.85-4.236,9.411-5.581
			c3.561-1.343,7.621-2.016,12.182-2.016h20.088L207.986,44.251z"/>
		<path fill="#009444" d="M233.593,82.7l-2.908,7.991h-16.416c-6.048,0-10.149-1.691-12.302-5.074
			c-2.151-3.385-2.032-8.364,0.361-14.941c2.394-6.575,5.898-11.557,10.514-14.94c4.615-3.384,9.948-5.076,15.996-5.076h16.416
			l-2.908,7.992h-14.832c-1.249,0-2.435,0.062-3.559,0.181c-1.123,0.121-2.207,0.457-3.246,1.008
			c-1.042,0.553-2.007,1.356-2.895,2.412c-0.889,1.057-1.744,2.521-2.57,4.392h23.328l-2.908,7.992h-23.328
			c-0.258,1.104-0.471,2.149-0.637,3.132c-0.166,0.984-0.092,1.836,0.223,2.557c0.314,0.719,0.992,1.296,2.035,1.729
			c1.041,0.432,2.644,0.647,4.804,0.647H233.593z"/>
		<path fill="#009444" d="M272.833,82.7l-2.908,7.991h-16.416c-6.048,0-10.149-1.691-12.302-5.074
			c-2.151-3.385-2.032-8.364,0.361-14.941c2.394-6.575,5.898-11.557,10.514-14.94c4.615-3.384,9.948-5.076,15.996-5.076h16.416
			l-2.908,7.992h-14.832c-1.249,0-2.435,0.062-3.559,0.181c-1.123,0.121-2.207,0.457-3.246,1.008
			c-1.042,0.553-2.007,1.356-2.895,2.412c-0.889,1.057-1.744,2.521-2.57,4.392h23.328l-2.908,7.992h-23.328
			c-0.258,1.104-0.471,2.149-0.637,3.132c-0.166,0.984-0.092,1.836,0.223,2.557c0.314,0.719,0.992,1.296,2.035,1.729
			c1.041,0.432,2.644,0.647,4.804,0.647H272.833z"/>
		<path fill="#009444" d="M280.448,85.617c-2.151-3.385-2.032-8.364,0.361-14.941c2.394-6.575,5.898-11.557,10.514-14.94
			c4.615-3.384,9.948-5.076,15.996-5.076h12.456l5.817-15.984h10.368l-20.387,56.016h-22.824
			C286.701,90.691,282.6,89,280.448,85.617z M305.836,59.084c-3.023,0-5.789,1.033-8.29,3.096c-2.505,2.064-4.41,4.896-5.72,8.496
			c-1.311,3.6-1.467,6.434-0.465,8.496c1,2.064,3.013,3.096,6.037,3.096h10.872l8.438-23.184H305.836z"/>
	</g>
	<g enable-background="new    ">
		<path fill="#808285" d="M24.336,34.699h11.952l23.616,56.016h-12.6l-5.472-13.608h-23.04L13.32,90.715H0.72L24.336,34.699z
			 M22.32,68.323h15.984l-7.992-19.944L22.32,68.323z"/>
		<path fill="#808285" d="M95.184,59.106H80.352c-3.024,0-5.412,1.033-7.164,3.097c-1.752,2.064-2.628,4.896-2.628,8.496
			c0,3.6,0.875,6.433,2.628,8.496c1.752,2.063,4.14,3.096,7.164,3.096h14.832v8.424H78.768c-6.048,0-10.764-1.692-14.148-5.076
			s-5.076-8.363-5.076-14.939s1.692-11.557,5.076-14.94s8.1-5.076,14.148-5.076h16.416V59.106z"/>
		<path fill="#808285" d="M98.783,59.106v-8.424h7.2V34.699h10.368v15.983h10.008v8.424h-10.008v14.4
			c0,0.961,0.036,1.956,0.108,2.988c0.072,1.032,0.288,1.979,0.648,2.844s0.947,1.572,1.764,2.124
			c0.815,0.553,1.991,0.828,3.528,0.828h3.96v8.424h-7.632c-2.545,0-4.633-0.324-6.264-0.972c-1.632-0.648-2.928-1.56-3.888-2.736
			c-0.96-1.176-1.632-2.58-2.016-4.212c-0.385-1.631-0.576-3.432-0.576-5.4V59.106H98.783z"/>
		<path fill="#808285" d="M131.76,46.65v-9.575h10.368v9.575H131.76z M131.76,90.715V50.683h10.368v40.032H131.76z"/>
	</g>
	<g>
		<g>
			<path fill="#808285" d="M51.126,72.72c0.003-0.071,0.006-0.146,0.009-0.219c-0.537,1.297-1.074,2.593-1.611,3.89
				c0.021-0.023,0.041-0.048,0.062-0.07c-2.223,0.287-4.443,0.574-6.665,0.859c-2.008-1.242-1.764-1.918-1.01-0.445
				c0.346,0.678,0.653,1.375,0.969,2.065c0.771,1.689,1.483,3.405,2.194,5.121c1.43,3.457,2.626,7.063,4.316,10.403
				c3.314,6.544,9.385,10.697,16.293,12.693c8.924,2.575,18.861,2.078,28.038,2.027c13.425-0.074,26.844-0.029,40.27,0.059
				c29.355,0.191,58.712,0.377,88.068,0.476c26.074,0.086,52.246,0.685,78.308-0.31c15.665-0.597,34.032-1.522,46.844-11.717
				c12.756-10.147,14.127-28.049,11.952-43.039c-1.561-10.767-5.491-22.136-12.37-30.669c-5.291-6.564-13.832-10.28-21.941-11.7
				c-17.301-3.028-35.779,1.267-52.238,6.549c-2.709,0.869-5.411,1.788-8.055,2.84c-6.508,2.591-3.672,13.234,2.924,10.607
				c11.414-4.545,23.754-7.828,35.941-9.292c8.832-1.062,18.008-1.132,26.438,2.016c8.646,3.229,12.865,11.852,15.644,20.018
				c4.672,13.732,6.979,33.958-5.504,44.442c-4.892,4.104-11.878,5.698-17.968,6.877c-9.215,1.782-18.743,2.037-28.102,2.269
				c-53.254,1.318-106.677-0.021-159.939-0.365c-12.941-0.084-25.88-0.168-38.82-0.068c-8.762,0.066-18.004,0.6-26.562-1.626
				c-5.571-1.448-8.844-5.166-10.803-10.15c-1.494-3.801-3.062-7.573-4.681-11.321c-1.108-2.569-2.149-5.709-4.652-7.256
				c-1.989-1.231-5.084-0.953-6.665,0.859c-1.117,1.281-1.612,2.471-1.681,4.178C39.837,79.814,50.838,79.788,51.126,72.72
				L51.126,72.72z"/>
		</g>
	</g>
	<polygon fill="#808285" points="222.916,44.365 268.683,0 266.021,26.838 286.621,44.247 	"/>
</g>
</svg>
